General
Count                                    : 348
Count of stream of this kind             : 1
Kind of stream                           : General
Kind of stream                           : General
Stream identifier                        : 0
Count of image streams                   : 1
Image_Format_List                        : DPX
Image_Format_WithHint_List               : DPX
Codecs Image                             : DPX
Complete name                            : /home/saiprasa/Desktop/rawcooked-usc-dr/media/encoding/dpx_to_assess/N_036test_01of01/scan01/3200x2080/FNH_023_0000002.dpx
Folder name                              : /home/saiprasa/Desktop/rawcooked-usc-dr/media/encoding/dpx_to_assess/N_036test_01of01/scan01/3200x2080
File name extension                      : FNH_023_0000002.dpx
File name                                : FNH_023_0000002
File extension                           : dpx
Format                                   : DPX
Format                                   : DPX
Format/Extensions usually used           : dpx cin
Commercial name                          : DPX
Format version                           : Version 1.0
File size                                : 26628096
File size                                : 25.4 MiB
File size                                : 25 MiB
File size                                : 25 MiB
File size                                : 25.4 MiB
File size                                : 25.39 MiB
Stream size                              : 0
Stream size                              : 0.00 Byte (0%)
Stream size                              :  Byte0
Stream size                              : 0.0 Byte
Stream size                              : 0.00 Byte
Stream size                              : 0.000 Byte
Stream size                              : 0.00 Byte (0%)
Proportion of this stream                : 0.00000
Encoded date                             : 2023-03-29T23:35:50UTC
File last modification date              : 2023-06-30 16:31:56 UTC
File last modification date (local)      : 2023-06-30 09:31:56
Writing library                          : Lasergraphics Inc.
Writing library                          : Lasergraphics Inc.

Image
Count                                    : 125
Count of stream of this kind             : 1
Kind of stream                           : Image
Kind of stream                           : Image
Stream identifier                        : 0
Format                                   : DPX
Format                                   : DPX
Commercial name                          : DPX
Format version                           : Version 1.0
Format settings, Endianness              : Big
Format_Settings_Packing                  : Filled A
Compression                              : Raw
Format settings                          : Big / Filled A
Width                                    : 3200
Width                                    : 3 200 pixels
Height                                   : 2080
Height                                   : 2 080 pixels
Pixel aspect ratio                       : 1.000
Display aspect ratio                     : 1.538
Display aspect ratio                     : 3:2
Color space                              : RGB
Bit depth                                : 10
Bit depth                                : 10 bits
Compression mode                         : Lossless
Compression mode                         : Lossless
Stream size                              : 26628096
Stream size                              : 25.4 MiB (100%)
Stream size                              : 25 MiB
Stream size                              : 25 MiB
Stream size                              : 25.4 MiB
Stream size                              : 25.39 MiB
Stream size                              : 25.4 MiB (100%)
Proportion of this stream                : 1.00000
Writing library                          : Lasergraphics Inc.
Writing library                          : Lasergraphics Inc.
Encoded date                             : 2023-03-29T23:35:50UTC
colour_description_present               : Yes
Color primaries                          : Printing density
Transfer characteristics                 : BT.709
Frame rate                               : 18.000


